# xmcd
#
# Track frame offsets:
#	150
#	24800
#	49512
#	68985
#
# Disc length: 1243 seconds
#
# Revision: 2
# Processed by: cddbd v1.5.2PL0 Copyright (c) Steve Scherf et al.
# Submitted via: audiograbber 1.83.01
#
DISCID=2704d904
DTITLE=Master P - I Miss My Homies
DYEAR=1997
DGENRE=Rap
TTITLE0=Master P, Pimp C, Silkk The Shocker, Sons Of Funk, Mo B. Dick, O'Dell /
TTITLE0=I Miss My Homies (Radio)
TTITLE1=Master P, Pimp C, Silkk The Shocker, Sons Of Funk, Mo B. Dick, O'Dell /
TTITLE1=I Miss My Homies
TTITLE2=Master P, Fiend, Mystikal - Here We Go
TTITLE3=Master P - I Miss My Homies (Instumental)
EXTD=www.RapMusicGuide.com
EXTT0=
EXTT1=
EXTT2=
EXTT3=
PLAYORDER=
